<?xml version="1.0" standalone="no"?>
<!DOCTYPE svg PUBLIC "-//W3C//DTD SVG 20010904//EN"
 "http://www.w3.org/TR/2001/REC-SVG-20010904/DTD/svg10.dtd">
<svg version="1.0" xmlns="http://www.w3.org/2000/svg"
 width="64.000000pt" height="64.000000pt" viewBox="0 0 64.000000 64.000000"
 preserveAspectRatio="xMidYMid meet">

<g transform="translate(0.000000,64.000000) scale(0.100000,-0.100000)"
fill="#6842c2"  stroke="#6842c2">
<path d="M58 574 c-52 -27 -58 -56 -58 -254 0 -272 -2 -270 270 -270 193 0
222 6 254 52 22 31 23 188 1 188 -23 0 -35 -34 -35 -98 0 -92 -1 -92 -222 -92
-166 0 -187 2 -201 18 -15 16 -17 45 -17 204 0 166 2 187 18 201 16 15 45 17
204 17 157 0 188 2 199 16 23 28 -9 34 -201 33 -144 0 -191 -3 -212 -15z"/>
<path d="M420 435 l-124 -124 -57 54 c-32 30 -61 55 -66 55 -12 0 -73 -63 -73
-76 0 -5 42 -51 94 -103 72 -71 98 -92 113 -87 23 7 333 318 333 333 0 22 -52
73 -74 73 -14 0 -63 -41 -146 -125z"/>
</g>
</svg>
