<?xml version="1.0" standalone="no"?>
<!DOCTYPE svg PUBLIC "-//W3C//DTD SVG 20010904//EN"
 "http://www.w3.org/TR/2001/REC-SVG-20010904/DTD/svg10.dtd">
<svg version="1.0" xmlns="http://www.w3.org/2000/svg"
 width="64.000000pt" height="64.000000pt" viewBox="0 0 64.000000 64.000000"
 preserveAspectRatio="xMidYMid meet">

<g transform="translate(0.000000,64.000000) scale(0.100000,-0.100000)"
fill="white" stroke="white">
<path d="M155 578 c-43 -23 -45 -33 -45 -254 0 -117 3 -220 6 -229 9 -24 58
-45 103 -45 52 0 71 8 71 31 0 20 -19 27 -85 31 l-40 3 0 205 0 205 155 0 155
0 5 -60 c4 -52 8 -60 25 -60 17 0 20 8 23 54 7 120 -11 131 -210 131 -84 0
-151 -5 -163 -12z"/>
<path d="M217 436 c-10 -27 17 -36 103 -36 86 0 113 9 103 36 -4 11 -29 14
-103 14 -74 0 -99 -3 -103 -14z"/>
<path d="M453 348 c-6 -7 -34 -53 -63 -103 -40 -68 -54 -102 -58 -141 -7 -81
34 -106 103 -62 47 30 159 219 151 253 -12 46 -109 84 -133 53z m77 -67 c0 -5
-23 -48 -51 -95 -44 -75 -71 -106 -94 -106 -16 0 11 70 57 147 44 74 51 82 68
73 11 -6 20 -15 20 -19z"/>
<path d="M220 335 c-23 -27 5 -45 70 -45 71 0 90 7 90 30 0 23 -19 30 -90 30
-39 0 -62 -5 -70 -15z"/>
<path d="M223 229 c-23 -23 -3 -39 49 -39 46 0 49 2 46 23 -2 18 -10 23 -43
25 -22 2 -45 -2 -52 -9z"/>
</g>
</svg>
