<svg width="160" height="22" viewBox="0 0 160 22" fill="none" xmlns="http://www.w3.org/2000/svg">
<path d="M10.0107 1.52979V4.42285H6.23877V9.35449H9.75439V12.394H6.23877V21H0.171875V1.52979H10.0107ZM20.1426 18.1069H23.0234V8.06055H20.1426V18.1069ZM21.6562 21.4761C20.4355 21.4761 19.3979 21.4028 18.5435 21.2563C17.6971 21.1099 16.9932 20.9146 16.4316 20.6704C15.8701 20.4263 15.4307 20.1414 15.1133 19.8159C14.804 19.4904 14.5721 19.1527 14.4175 18.8027C14.2629 18.4528 14.1652 18.0988 14.1245 17.7407C14.092 17.3745 14.0757 17.0286 14.0757 16.7031V9.37891C14.0757 9.05339 14.092 8.71159 14.1245 8.35352C14.1652 7.9873 14.2629 7.62923 14.4175 7.2793C14.5721 6.92122 14.804 6.5835 15.1133 6.26611C15.4307 5.94059 15.8701 5.65576 16.4316 5.41162C16.9932 5.16748 17.6971 4.97217 18.5435 4.82568C19.3979 4.6792 20.4355 4.60596 21.6562 4.60596C22.8688 4.60596 23.8942 4.6792 24.7324 4.82568C25.5788 4.97217 26.2746 5.16748 26.8198 5.41162C27.3732 5.65576 27.8005 5.94059 28.1016 6.26611C28.4108 6.5835 28.6387 6.92122 28.7852 7.2793C28.9316 7.62923 29.0171 7.9873 29.0415 8.35352C29.0741 8.71159 29.0903 9.05339 29.0903 9.37891V16.7031C29.0903 17.0286 29.0741 17.3745 29.0415 17.7407C29.0171 18.0988 28.9316 18.4528 28.7852 18.8027C28.6387 19.1527 28.4108 19.4904 28.1016 19.8159C27.8005 20.1414 27.3732 20.4263 26.8198 20.6704C26.2746 20.9146 25.5788 21.1099 24.7324 21.2563C23.8942 21.4028 22.8688 21.4761 21.6562 21.4761ZM32.4717 21V5.13086H37.3667L38.0503 7.6333C38.1317 7.2264 38.2578 6.86833 38.4287 6.55908C38.5996 6.24984 38.7949 5.98535 39.0146 5.76562C39.2425 5.53776 39.4867 5.35059 39.7471 5.2041C40.0075 5.05762 40.2679 4.94368 40.5283 4.8623C40.7887 4.77279 41.041 4.71175 41.2852 4.6792C41.5293 4.63851 41.745 4.6141 41.9321 4.60596V9.41553L38.5386 10.3921V21H32.4717ZM51.6367 21H45.5698V7.57227H44.0684V5.13086H45.5698V1.52979H51.6367V5.13086H53.6387V7.57227H51.6367V21ZM71.2656 15.4946C71.2656 16.0724 71.2453 16.6217 71.2046 17.1426C71.1639 17.6553 71.0622 18.1354 70.8994 18.583C70.7448 19.0225 70.5047 19.4172 70.1792 19.7671C69.8618 20.117 69.4224 20.4181 68.8608 20.6704C68.3075 20.9146 67.6117 21.1017 66.7734 21.2319C65.9434 21.3703 64.9302 21.4395 63.7339 21.4395C62.5132 21.4395 61.4797 21.3662 60.6333 21.2197C59.7951 21.0732 59.0993 20.8779 58.5459 20.6338C57.9925 20.3896 57.5612 20.1089 57.252 19.7915C56.9427 19.466 56.7148 19.1283 56.5684 18.7783C56.4219 18.4202 56.3324 18.0622 56.2998 17.7041C56.2754 17.346 56.2632 17.0042 56.2632 16.6787V9.35449C56.2632 9.02897 56.2754 8.68717 56.2998 8.3291C56.3324 7.97103 56.4219 7.61702 56.5684 7.26709C56.7148 6.91715 56.9427 6.5835 57.252 6.26611C57.5612 5.94059 57.9925 5.65576 58.5459 5.41162C59.0993 5.16748 59.7951 4.97217 60.6333 4.82568C61.4797 4.6792 62.5132 4.60596 63.7339 4.60596C64.922 4.60596 65.9352 4.6792 66.7734 4.82568C67.6117 4.97217 68.3075 5.16748 68.8608 5.41162C69.4224 5.65576 69.8618 5.94059 70.1792 6.26611C70.5047 6.5835 70.7489 6.91715 70.9116 7.26709C71.0744 7.61702 71.1761 7.9751 71.2168 8.34131C71.2575 8.69938 71.2778 9.03711 71.2778 9.35449V13.9321H62.3301V18.1069H65.2109V15.5068L71.2656 15.4946ZM62.3301 11.7593H65.2109V8.06055H62.3301V11.7593ZM84.6201 1.52979V4.42285H80.8481V9.26904H84.3638V12.3208H80.8481V18.1069H84.6201V21H74.7812V1.52979H84.6201ZM104.017 0.125977V21H99L98.4385 18.9614C98.1943 19.3683 97.8973 19.7305 97.5474 20.0479C97.2056 20.3571 96.8271 20.6175 96.4121 20.8291C95.9971 21.0326 95.5576 21.1872 95.0938 21.293C94.6299 21.3988 94.1538 21.4517 93.6655 21.4517C93.0796 21.4517 92.5059 21.3499 91.9443 21.1465C91.3828 20.943 90.8823 20.6338 90.4429 20.2188C90.0116 19.7956 89.6616 19.2666 89.3931 18.6318C89.1326 17.9971 89.0024 17.2524 89.0024 16.3979V9.34229C89.0024 8.52848 89.1326 7.82454 89.3931 7.23047C89.6535 6.62826 89.9953 6.13184 90.4185 5.74121C90.8498 5.35059 91.3381 5.06169 91.8833 4.87451C92.4367 4.68734 93.0023 4.59375 93.5801 4.59375C94.4508 4.59375 95.2646 4.7443 96.0215 5.04541C96.7865 5.34652 97.4294 5.78597 97.9502 6.36377V0.125977H104.017ZM97.9502 8.06055H95.0693V18.1069H97.9502V8.06055ZM122.584 5.13086V21H117.567L117.005 18.9614C116.794 19.3846 116.517 19.759 116.175 20.0845C115.833 20.4019 115.451 20.6704 115.028 20.8901C114.605 21.1017 114.153 21.2604 113.673 21.3662C113.193 21.4801 112.704 21.5371 112.208 21.5371C111.63 21.5371 111.061 21.4435 110.499 21.2563C109.946 21.0692 109.449 20.7884 109.01 20.4141C108.578 20.0316 108.229 19.5514 107.96 18.9736C107.7 18.3958 107.569 17.7204 107.569 16.9473V5.13086H113.636V18.1069H116.517V5.13086H122.584ZM140.931 15.4946V16.6787C140.931 16.9961 140.919 17.3379 140.895 17.7041C140.87 18.0622 140.789 18.4202 140.65 18.7783C140.512 19.1283 140.288 19.466 139.979 19.7915C139.678 20.1089 139.247 20.3937 138.685 20.646C138.132 20.8901 137.424 21.0854 136.561 21.2319C135.698 21.3784 134.64 21.4517 133.387 21.4517C132.167 21.4517 131.133 21.3784 130.287 21.2319C129.448 21.0854 128.753 20.8901 128.199 20.646C127.646 20.4019 127.215 20.117 126.905 19.7915C126.596 19.466 126.368 19.1283 126.222 18.7783C126.075 18.4284 125.986 18.0744 125.953 17.7163C125.929 17.3501 125.917 17.0042 125.917 16.6787V9.35449C125.917 9.02897 125.929 8.68717 125.953 8.3291C125.986 7.97103 126.075 7.61702 126.222 7.26709C126.368 6.91715 126.596 6.5835 126.905 6.26611C127.215 5.94059 127.646 5.65576 128.199 5.41162C128.753 5.16748 129.448 4.97217 130.287 4.82568C131.133 4.6792 132.167 4.60596 133.387 4.60596C134.575 4.60596 135.584 4.67106 136.415 4.80127C137.253 4.93148 137.949 5.11051 138.502 5.33838C139.063 5.56624 139.507 5.82666 139.833 6.11963C140.158 6.4126 140.402 6.72591 140.565 7.05957C140.728 7.39323 140.829 7.73096 140.87 8.07275C140.911 8.41455 140.931 8.74414 140.931 9.06152V10.563H134.864V8.06055H131.983V18.1069H134.864V15.4946H140.931ZM153.639 21L153.089 18.9614C152.878 19.3765 152.609 19.7386 152.284 20.0479C151.958 20.3571 151.596 20.6175 151.197 20.8291C150.799 21.0326 150.371 21.1831 149.916 21.2808C149.468 21.3866 149.02 21.4395 148.573 21.4395C147.637 21.4395 146.852 21.297 146.217 21.0122C145.59 20.7355 145.086 20.3693 144.703 19.9136C144.329 19.4497 144.06 18.9248 143.897 18.3389C143.743 17.7448 143.666 17.1344 143.666 16.5078C143.666 15.8649 143.759 15.2342 143.946 14.6157C144.142 13.9891 144.471 13.4316 144.935 12.9434C145.407 12.4469 146.038 12.0482 146.827 11.7471C147.625 11.446 148.626 11.2954 149.83 11.2954C150.245 11.2954 150.693 11.3076 151.173 11.332C151.653 11.3564 152.133 11.3971 152.613 11.4541V8.06055H149.732V10.0991L144.923 10.0869C144.833 9.76953 144.76 9.45622 144.703 9.14697C144.646 8.83773 144.618 8.54069 144.618 8.25586C144.618 7.76758 144.719 7.30371 144.923 6.86426C145.134 6.41667 145.493 6.02604 145.997 5.69238C146.51 5.35872 147.193 5.09424 148.048 4.89893C148.91 4.70361 149.997 4.60596 151.307 4.60596C152.487 4.60596 153.488 4.6792 154.31 4.82568C155.132 4.97217 155.816 5.16748 156.361 5.41162C156.906 5.65576 157.333 5.94059 157.643 6.26611C157.952 6.5835 158.184 6.92122 158.338 7.2793C158.493 7.62923 158.587 7.9873 158.619 8.35352C158.66 8.71159 158.68 9.05339 158.68 9.37891V17.8628C158.68 18.2534 158.705 18.6318 158.753 18.998C158.81 19.3643 158.871 19.6979 158.937 19.999C159.018 20.349 159.107 20.6826 159.205 21H153.639ZM149.732 13.6514V18.1069H152.613V13.6514H149.732Z" fill="white"/>
</svg>
