<svg width="484" height="127" viewBox="0 0 612 84" fill="none" xmlns="http://www.w3.org/2000/svg">
<path d="M38.2812 6.23438V17.3438H23.7969V36.2812H37.2969V47.9531H23.7969V81H0.5V6.23438H38.2812ZM77.1875 69.8906H88.25V31.3125H77.1875V69.8906ZM83 82.8281C78.3125 82.8281 74.3281 82.5469 71.0469 81.9844C67.7969 81.4219 65.0938 80.6719 62.9375 79.7344C60.7812 78.7969 59.0938 77.7031 57.875 76.4531C56.6875 75.2031 55.7969 73.9062 55.2031 72.5625C54.6094 71.2188 54.2344 69.8594 54.0781 68.4844C53.9531 67.0781 53.8906 65.75 53.8906 64.5V36.375C53.8906 35.125 53.9531 33.8125 54.0781 32.4375C54.2344 31.0312 54.6094 29.6562 55.2031 28.3125C55.7969 26.9375 56.6875 25.6406 57.875 24.4219C59.0938 23.1719 60.7812 22.0781 62.9375 21.1406C65.0938 20.2031 67.7969 19.4531 71.0469 18.8906C74.3281 18.3281 78.3125 18.0469 83 18.0469C87.6562 18.0469 91.5938 18.3281 94.8125 18.8906C98.0625 19.4531 100.734 20.2031 102.828 21.1406C104.953 22.0781 106.594 23.1719 107.75 24.4219C108.938 25.6406 109.812 26.9375 110.375 28.3125C110.938 29.6562 111.266 31.0312 111.359 32.4375C111.484 33.8125 111.547 35.125 111.547 36.375V64.5C111.547 65.75 111.484 67.0781 111.359 68.4844C111.266 69.8594 110.938 71.2188 110.375 72.5625C109.812 73.9062 108.938 75.2031 107.75 76.4531C106.594 77.7031 104.953 78.7969 102.828 79.7344C100.734 80.6719 98.0625 81.4219 94.8125 81.9844C91.5938 82.5469 87.6562 82.8281 83 82.8281ZM124.531 81V20.0625H143.328L145.953 29.6719C146.266 28.1094 146.75 26.7344 147.406 25.5469C148.062 24.3594 148.812 23.3438 149.656 22.5C150.531 21.625 151.469 20.9062 152.469 20.3438C153.469 19.7812 154.469 19.3438 155.469 19.0312C156.469 18.6875 157.438 18.4531 158.375 18.3281C159.312 18.1719 160.141 18.0781 160.859 18.0469V36.5156L147.828 40.2656V81H124.531ZM198.125 81H174.828V29.4375H169.062V20.0625H174.828V6.23438H198.125V20.0625H205.812V29.4375H198.125V81ZM273.5 59.8594C273.5 62.0781 273.422 64.1875 273.266 66.1875C273.109 68.1562 272.719 70 272.094 71.7188C271.5 73.4062 270.578 74.9219 269.328 76.2656C268.109 77.6094 266.422 78.7656 264.266 79.7344C262.141 80.6719 259.469 81.3906 256.25 81.8906C253.062 82.4219 249.172 82.6875 244.578 82.6875C239.891 82.6875 235.922 82.4062 232.672 81.8438C229.453 81.2812 226.781 80.5312 224.656 79.5938C222.531 78.6562 220.875 77.5781 219.688 76.3594C218.5 75.1094 217.625 73.8125 217.062 72.4688C216.5 71.0938 216.156 69.7188 216.031 68.3438C215.938 66.9688 215.891 65.6562 215.891 64.4062V36.2812C215.891 35.0312 215.938 33.7188 216.031 32.3438C216.156 30.9688 216.5 29.6094 217.062 28.2656C217.625 26.9219 218.5 25.6406 219.688 24.4219C220.875 23.1719 222.531 22.0781 224.656 21.1406C226.781 20.2031 229.453 19.4531 232.672 18.8906C235.922 18.3281 239.891 18.0469 244.578 18.0469C249.141 18.0469 253.031 18.3281 256.25 18.8906C259.469 19.4531 262.141 20.2031 264.266 21.1406C266.422 22.0781 268.109 23.1719 269.328 24.4219C270.578 25.6406 271.516 26.9219 272.141 28.2656C272.766 29.6094 273.156 30.9844 273.312 32.3906C273.469 33.7656 273.547 35.0625 273.547 36.2812V53.8594H239.188V69.8906H250.25V59.9062L273.5 59.8594ZM239.188 45.5156H250.25V31.3125H239.188V45.5156ZM324.781 6.23438V17.3438H310.297V35.9531H323.797V47.6719H310.297V69.8906H324.781V81H287V6.23438H324.781ZM399.266 0.84375V81H380L377.844 73.1719C376.906 74.7344 375.766 76.125 374.422 77.3438C373.109 78.5312 371.656 79.5312 370.062 80.3438C368.469 81.125 366.781 81.7188 365 82.125C363.219 82.5312 361.391 82.7344 359.516 82.7344C357.266 82.7344 355.062 82.3438 352.906 81.5625C350.75 80.7812 348.828 79.5938 347.141 78C345.484 76.375 344.141 74.3438 343.109 71.9062C342.109 69.4688 341.609 66.6094 341.609 63.3281V36.2344C341.609 33.1094 342.109 30.4062 343.109 28.125C344.109 25.8125 345.422 23.9062 347.047 22.4062C348.703 20.9062 350.578 19.7969 352.672 19.0781C354.797 18.3594 356.969 18 359.188 18C362.531 18 365.656 18.5781 368.562 19.7344C371.5 20.8906 373.969 22.5781 375.969 24.7969V0.84375H399.266ZM375.969 31.3125H364.906V69.8906H375.969V31.3125ZM470.562 20.0625V81H451.297L449.141 73.1719C448.328 74.7969 447.266 76.2344 445.953 77.4844C444.641 78.7031 443.172 79.7344 441.547 80.5781C439.922 81.3906 438.188 82 436.344 82.4062C434.5 82.8438 432.625 83.0625 430.719 83.0625C428.5 83.0625 426.312 82.7031 424.156 81.9844C422.031 81.2656 420.125 80.1875 418.438 78.75C416.781 77.2812 415.438 75.4375 414.406 73.2188C413.406 71 412.906 68.4062 412.906 65.4375V20.0625H436.203V69.8906H447.266V20.0625H470.562ZM541.016 59.8594V64.4062C541.016 65.625 540.969 66.9375 540.875 68.3438C540.781 69.7188 540.469 71.0938 539.938 72.4688C539.406 73.8125 538.547 75.1094 537.359 76.3594C536.203 77.5781 534.547 78.6719 532.391 79.6406C530.266 80.5781 527.547 81.3281 524.234 81.8906C520.922 82.4531 516.859 82.7344 512.047 82.7344C507.359 82.7344 503.391 82.4531 500.141 81.8906C496.922 81.3281 494.25 80.5781 492.125 79.6406C490 78.7031 488.344 77.6094 487.156 76.3594C485.969 75.1094 485.094 73.8125 484.531 72.4688C483.969 71.125 483.625 69.7656 483.5 68.3906C483.406 66.9844 483.359 65.6562 483.359 64.4062V36.2812C483.359 35.0312 483.406 33.7188 483.5 32.3438C483.625 30.9688 483.969 29.6094 484.531 28.2656C485.094 26.9219 485.969 25.6406 487.156 24.4219C488.344 23.1719 490 22.0781 492.125 21.1406C494.25 20.2031 496.922 19.4531 500.141 18.8906C503.391 18.3281 507.359 18.0469 512.047 18.0469C516.609 18.0469 520.484 18.2969 523.672 18.7969C526.891 19.2969 529.562 19.9844 531.688 20.8594C533.844 21.7344 535.547 22.7344 536.797 23.8594C538.047 24.9844 538.984 26.1875 539.609 27.4688C540.234 28.75 540.625 30.0469 540.781 31.3594C540.938 32.6719 541.016 33.9375 541.016 35.1562V40.9219H517.719V31.3125H506.656V69.8906H517.719V59.8594H541.016ZM589.812 81L587.703 73.1719C586.891 74.7656 585.859 76.1562 584.609 77.3438C583.359 78.5312 581.969 79.5312 580.438 80.3438C578.906 81.125 577.266 81.7031 575.516 82.0781C573.797 82.4844 572.078 82.6875 570.359 82.6875C566.766 82.6875 563.75 82.1406 561.312 81.0469C558.906 79.9844 556.969 78.5781 555.5 76.8281C554.062 75.0469 553.031 73.0312 552.406 70.7812C551.812 68.5 551.516 66.1562 551.516 63.75C551.516 61.2812 551.875 58.8594 552.594 56.4844C553.344 54.0781 554.609 51.9375 556.391 50.0625C558.203 48.1562 560.625 46.625 563.656 45.4688C566.719 44.3125 570.562 43.7344 575.188 43.7344C576.781 43.7344 578.5 43.7812 580.344 43.875C582.188 43.9688 584.031 44.125 585.875 44.3438V31.3125H574.812V39.1406L556.344 39.0938C556 37.875 555.719 36.6719 555.5 35.4844C555.281 34.2969 555.172 33.1562 555.172 32.0625C555.172 30.1875 555.562 28.4062 556.344 26.7188C557.156 25 558.531 23.5 560.469 22.2188C562.438 20.9375 565.062 19.9219 568.344 19.1719C571.656 18.4219 575.828 18.0469 580.859 18.0469C585.391 18.0469 589.234 18.3281 592.391 18.8906C595.547 19.4531 598.172 20.2031 600.266 21.1406C602.359 22.0781 604 23.1719 605.188 24.4219C606.375 25.6406 607.266 26.9375 607.859 28.3125C608.453 29.6562 608.812 31.0312 608.938 32.4375C609.094 33.8125 609.172 35.125 609.172 36.375V68.9531C609.172 70.4531 609.266 71.9062 609.453 73.3125C609.672 74.7188 609.906 76 610.156 77.1562C610.469 78.5 610.812 79.7812 611.188 81H589.812ZM574.812 52.7812V69.8906H585.875V52.7812H574.812Z" fill="white"/>
<path d="M38.2812 6.23438H39.2812V5.23438H38.2812V6.23438ZM38.2812 17.3438V18.3438H39.2812V17.3438H38.2812ZM23.7969 17.3438V16.3438H22.7969V17.3438H23.7969ZM23.7969 36.2812H22.7969V37.2812H23.7969V36.2812ZM37.2969 36.2812H38.2969V35.2812H37.2969V36.2812ZM37.2969 47.9531V48.9531H38.2969V47.9531H37.2969ZM23.7969 47.9531V46.9531H22.7969V47.9531H23.7969ZM23.7969 81V82H24.7969V81H23.7969ZM0.5 81H-0.5V82H0.5V81ZM0.5 6.23438V5.23438H-0.5V6.23438H0.5ZM37.2812 6.23438V17.3438H39.2812V6.23438H37.2812ZM38.2812 16.3438H23.7969V18.3438H38.2812V16.3438ZM22.7969 17.3438V36.2812H24.7969V17.3438H22.7969ZM23.7969 37.2812H37.2969V35.2812H23.7969V37.2812ZM36.2969 36.2812V47.9531H38.2969V36.2812H36.2969ZM37.2969 46.9531H23.7969V48.9531H37.2969V46.9531ZM22.7969 47.9531V81H24.7969V47.9531H22.7969ZM23.7969 80H0.5V82H23.7969V80ZM1.5 81V6.23438H-0.5V81H1.5ZM0.5 7.23438H38.2812V5.23438H0.5V7.23438ZM77.1875 69.8906H76.1875V70.8906H77.1875V69.8906ZM88.25 69.8906V70.8906H89.25V69.8906H88.25ZM88.25 31.3125H89.25V30.3125H88.25V31.3125ZM77.1875 31.3125V30.3125H76.1875V31.3125H77.1875ZM71.0469 81.9844L70.8763 82.9697L70.8779 82.97L71.0469 81.9844ZM57.875 76.4531L57.1499 77.1419L57.159 77.1512L57.875 76.4531ZM54.0781 68.4844L53.0821 68.5729L53.0831 68.5851L53.0845 68.5973L54.0781 68.4844ZM54.0781 32.4375L53.0842 32.3271L53.0831 32.337L53.0822 32.347L54.0781 32.4375ZM55.2031 28.3125L56.1178 28.7167L56.1212 28.7089L55.2031 28.3125ZM57.875 24.4219L57.159 23.7238L57.1588 23.724L57.875 24.4219ZM71.0469 18.8906L70.8779 17.905L70.8763 17.9053L71.0469 18.8906ZM94.8125 18.8906L94.6404 19.8757L94.642 19.876L94.8125 18.8906ZM102.828 21.1406L102.419 22.0533L102.424 22.0555L102.828 21.1406ZM107.75 24.4219L107.016 25.1009L107.025 25.1104L107.034 25.1197L107.75 24.4219ZM110.375 28.3125L109.449 28.6911L109.453 28.6986L110.375 28.3125ZM111.359 32.4375L110.362 32.504L110.362 32.516L110.363 32.528L111.359 32.4375ZM111.359 68.4844L110.363 68.3958L110.362 68.4061L110.362 68.4164L111.359 68.4844ZM107.75 76.4531L107.025 75.7643L107.016 75.7741L107.75 76.4531ZM102.828 79.7344L102.424 78.8194L102.419 78.8217L102.828 79.7344ZM94.8125 81.9844L94.642 80.999L94.6404 80.9993L94.8125 81.9844ZM77.1875 70.8906H88.25V68.8906H77.1875V70.8906ZM89.25 69.8906V31.3125H87.25V69.8906H89.25ZM88.25 30.3125H77.1875V32.3125H88.25V30.3125ZM76.1875 31.3125V69.8906H78.1875V31.3125H76.1875ZM83 81.8281C78.3482 81.8281 74.4239 81.5487 71.2158 80.9988L70.8779 82.97C74.2324 83.545 78.2768 83.8281 83 83.8281V81.8281ZM71.2174 80.999C68.0171 80.4451 65.3967 79.7132 63.3362 78.8173L62.5388 80.6514C64.7908 81.6306 67.5767 82.3986 70.8763 82.9697L71.2174 80.999ZM63.3362 78.8173C61.2601 77.9146 59.6937 76.886 58.591 75.755L57.159 77.1512C58.4938 78.5202 60.3024 79.6791 62.5388 80.6514L63.3362 78.8173ZM58.6 75.7644C57.4782 74.5835 56.6579 73.3806 56.1178 72.1583L54.2884 72.9667C54.9359 74.4319 55.8968 75.8228 57.15 77.1419L58.6 75.7644ZM56.1178 72.1583C55.5624 70.9014 55.2159 69.6399 55.0717 68.3715L53.0845 68.5973C53.2529 70.0788 53.6563 71.5361 54.2884 72.9667L56.1178 72.1583ZM55.0742 68.3958C54.9515 67.0153 54.8906 65.717 54.8906 64.5H52.8906C52.8906 65.783 52.9548 67.1409 53.0821 68.5729L55.0742 68.3958ZM54.8906 64.5V36.375H52.8906V64.5H54.8906ZM54.8906 36.375C54.8906 35.1582 54.9515 33.876 55.074 32.528L53.0822 32.347C52.9548 33.749 52.8906 35.0918 52.8906 36.375H54.8906ZM55.072 32.5479C55.2166 31.2469 55.5637 29.9707 56.1178 28.7167L54.2884 27.9083C53.6551 29.3418 53.2522 30.8156 53.0842 32.3271L55.072 32.5479ZM56.1212 28.7089C56.6605 27.46 57.4773 26.2629 58.5912 25.1197L57.1588 23.724C55.8977 25.0183 54.9333 26.415 54.2851 27.9161L56.1212 28.7089ZM58.591 25.12C59.6937 23.989 61.2601 22.9604 63.3362 22.0577L62.5388 20.2236C60.3024 21.1959 58.4938 22.3548 57.159 23.7238L58.591 25.12ZM63.3362 22.0577C65.3967 21.1618 68.0171 20.4299 71.2174 19.876L70.8763 17.9053C67.5767 18.4764 64.7908 19.2444 62.5388 20.2236L63.3362 22.0577ZM71.2158 19.8762C74.4239 19.3263 78.3482 19.0469 83 19.0469V17.0469C78.2768 17.0469 74.2324 17.33 70.8779 17.905L71.2158 19.8762ZM83 19.0469C87.6207 19.0469 91.4967 19.3263 94.6404 19.8757L94.9846 17.9056C91.6908 17.3299 87.6918 17.0469 83 17.0469V19.0469ZM94.642 19.876C97.8424 20.4299 100.427 21.1611 102.419 22.0533L103.237 20.2279C101.042 19.2451 98.2826 18.4764 94.983 17.9053L94.642 19.876ZM102.424 22.0555C104.467 22.9567 105.98 23.9808 107.016 25.1009L108.484 23.7428C107.208 22.363 105.439 21.1995 103.232 20.2257L102.424 22.0555ZM107.034 25.1197C108.145 26.2598 108.942 27.451 109.449 28.6911L111.301 27.9339C110.683 26.424 109.73 25.0215 108.466 23.724L107.034 25.1197ZM109.453 28.6986C109.974 29.9442 110.275 31.2114 110.362 32.504L112.357 32.371C112.256 30.8511 111.901 29.3683 111.297 27.9264L109.453 28.6986ZM110.363 32.528C110.486 33.876 110.547 35.1582 110.547 36.375H112.547C112.547 35.0918 112.483 33.749 112.355 32.347L110.363 32.528ZM110.547 36.375V64.5H112.547V36.375H110.547ZM110.547 64.5C110.547 65.717 110.486 67.0153 110.363 68.3958L112.355 68.5729C112.483 67.1409 112.547 65.783 112.547 64.5H110.547ZM110.362 68.4164C110.276 69.6758 109.975 70.928 109.453 72.1764L111.297 72.9486C111.9 71.5095 112.255 70.0429 112.357 68.5524L110.362 68.4164ZM109.453 72.1764C108.945 73.3896 108.144 74.5866 107.025 75.7644L108.475 77.1419C109.731 75.8196 110.68 74.4229 111.297 72.9486L109.453 72.1764ZM107.016 75.7741C105.98 76.8942 104.467 77.9183 102.424 78.8195L103.232 80.6493C105.439 79.6755 107.208 78.512 108.484 77.1322L107.016 75.7741ZM102.419 78.8217C100.427 79.7139 97.8424 80.4451 94.642 80.999L94.983 82.9697C98.2826 82.3986 101.042 81.6299 103.237 80.6471L102.419 78.8217ZM94.6404 80.9993C91.4967 81.5487 87.6207 81.8281 83 81.8281V83.8281C87.6918 83.8281 91.6908 83.5451 94.9846 82.9694L94.6404 80.9993ZM124.531 81H123.531V82H124.531V81ZM124.531 20.0625V19.0625H123.531V20.0625H124.531ZM143.328 20.0625L144.293 19.799L144.092 19.0625H143.328V20.0625ZM145.953 29.6719L144.988 29.9354L146.934 29.868L145.953 29.6719ZM155.469 19.0312L155.767 19.9857L155.78 19.9815L155.794 19.9769L155.469 19.0312ZM158.375 18.3281L158.507 19.3194L158.523 19.3172L158.539 19.3145L158.375 18.3281ZM160.859 18.0469H161.859V17.0025L160.816 17.0478L160.859 18.0469ZM160.859 36.5156L161.136 37.4766L161.859 37.2684V36.5156H160.859ZM147.828 40.2656L147.552 39.3046L146.828 39.5128V40.2656H147.828ZM147.828 81V82H148.828V81H147.828ZM125.531 81V20.0625H123.531V81H125.531ZM124.531 21.0625H143.328V19.0625H124.531V21.0625ZM142.363 20.326L144.988 29.9354L146.918 29.4084L144.293 19.799L142.363 20.326ZM146.934 29.868C147.229 28.3891 147.683 27.1141 148.281 26.0306L146.531 25.0632C145.817 26.3547 145.302 27.8297 144.973 29.4758L146.934 29.868ZM148.281 26.0306C148.899 24.914 149.594 23.9763 150.363 23.2071L148.949 21.7929C148.031 22.7112 147.226 23.8047 146.531 25.0632L148.281 26.0306ZM150.363 23.2071C151.179 22.3915 152.044 21.7298 152.959 21.2153L151.978 19.4722C150.893 20.0827 149.884 20.8585 148.949 21.7929L150.363 23.2071ZM152.959 21.2153C153.904 20.6839 154.84 20.2755 155.767 19.9857L155.17 18.0768C154.098 18.412 153.034 18.8786 151.978 19.4722L152.959 21.2153ZM155.794 19.9769C156.738 19.6522 157.642 19.4346 158.507 19.3194L158.243 17.3369C157.233 17.4716 156.199 17.7228 155.144 18.0856L155.794 19.9769ZM158.539 19.3145C159.449 19.163 160.235 19.075 160.903 19.0459L160.816 17.0478C160.046 17.0813 159.176 17.1808 158.211 17.3417L158.539 19.3145ZM159.859 18.0469V36.5156H161.859V18.0469H159.859ZM160.583 35.5546L147.552 39.3046L148.105 41.2266L161.136 37.4766L160.583 35.5546ZM146.828 40.2656V81H148.828V40.2656H146.828ZM147.828 80H124.531V82H147.828V80ZM198.125 81V82H199.125V81H198.125ZM174.828 81H173.828V82H174.828V81ZM174.828 29.4375H175.828V28.4375H174.828V29.4375ZM169.062 29.4375H168.062V30.4375H169.062V29.4375ZM169.062 20.0625V19.0625H168.062V20.0625H169.062ZM174.828 20.0625V21.0625H175.828V20.0625H174.828ZM174.828 6.23438V5.23438H173.828V6.23438H174.828ZM198.125 6.23438H199.125V5.23438H198.125V6.23438ZM198.125 20.0625H197.125V21.0625H198.125V20.0625ZM205.812 20.0625H206.812V19.0625H205.812V20.0625ZM205.812 29.4375V30.4375H206.812V29.4375H205.812ZM198.125 29.4375V28.4375H197.125V29.4375H198.125ZM198.125 80H174.828V82H198.125V80ZM175.828 81V29.4375H173.828V81H175.828ZM174.828 28.4375H169.062V30.4375H174.828V28.4375ZM170.062 29.4375V20.0625H168.062V29.4375H170.062ZM169.062 21.0625H174.828V19.0625H169.062V21.0625ZM175.828 20.0625V6.23438H173.828V20.0625H175.828ZM174.828 7.23438H198.125V5.23438H174.828V7.23438ZM197.125 6.23438V20.0625H199.125V6.23438H197.125ZM198.125 21.0625H205.812V19.0625H198.125V21.0625ZM204.812 20.0625V29.4375H206.812V20.0625H204.812ZM205.812 28.4375H198.125V30.4375H205.812V28.4375ZM197.125 29.4375V81H199.125V29.4375H197.125ZM273.5 59.8594H274.5V58.8574L273.498 58.8594L273.5 59.8594ZM273.266 66.1875L274.262 66.2666L274.263 66.2654L273.266 66.1875ZM272.094 71.7188L271.154 71.377L271.15 71.3868L272.094 71.7188ZM269.328 76.2656L268.596 75.5845L268.587 75.5938L269.328 76.2656ZM264.266 79.7344L264.669 80.6493L264.675 80.6465L264.266 79.7344ZM256.25 81.8906L256.096 80.9024L256.086 80.9042L256.25 81.8906ZM232.672 81.8438L232.5 82.8288L232.501 82.8291L232.672 81.8438ZM219.688 76.3594L218.962 77.0482L218.971 77.0572L219.688 76.3594ZM217.062 72.4688L216.137 72.8474L216.14 72.8549L217.062 72.4688ZM216.031 68.3438L215.034 68.4118L215.034 68.423L215.035 68.4343L216.031 68.3438ZM216.031 32.3438L215.035 32.2532L215.034 32.2645L215.034 32.2757L216.031 32.3438ZM219.688 24.4219L220.404 25.1198L220.412 25.1106L219.688 24.4219ZM232.672 18.8906L232.501 17.9053L232.5 17.9056L232.672 18.8906ZM264.266 21.1406L263.862 22.0556L263.867 22.0577L264.266 21.1406ZM269.328 24.4219L268.612 25.12L268.621 25.129L268.63 25.1379L269.328 24.4219ZM273.312 32.3906L272.319 32.5011L272.319 32.5035L273.312 32.3906ZM273.547 53.8594V54.8594H274.547V53.8594H273.547ZM239.188 53.8594V52.8594H238.188V53.8594H239.188ZM239.188 69.8906H238.188V70.8906H239.188V69.8906ZM250.25 69.8906V70.8906H251.25V69.8906H250.25ZM250.25 59.9062L250.248 58.9063L249.25 58.9083V59.9062H250.25ZM239.188 45.5156H238.188V46.5156H239.188V45.5156ZM250.25 45.5156V46.5156H251.25V45.5156H250.25ZM250.25 31.3125H251.25V30.3125H250.25V31.3125ZM239.188 31.3125V30.3125H238.188V31.3125H239.188ZM272.5 59.8594C272.5 62.0548 272.423 64.1381 272.269 66.1096L274.263 66.2654C274.421 64.2369 274.5 62.1014 274.5 59.8594H272.5ZM272.269 66.1084C272.119 67.9945 271.746 69.7493 271.154 71.377L273.034 72.0605C273.692 70.2507 274.1 68.318 274.262 66.2666L272.269 66.1084ZM271.15 71.3868C270.604 72.9413 269.755 74.3387 268.596 75.5845L270.06 76.9467C271.401 75.505 272.396 73.8712 273.037 72.0507L271.15 71.3868ZM268.587 75.5938C267.485 76.8096 265.923 77.8936 263.856 78.8222L264.675 80.6465C266.921 79.6377 268.734 78.4091 270.069 76.9374L268.587 75.5938ZM263.862 78.8195C261.842 79.7108 259.261 80.4109 256.097 80.9025L256.403 82.8788C259.677 82.3703 262.44 81.633 264.669 80.6493L263.862 78.8195ZM256.086 80.9042C252.97 81.4235 249.138 81.6875 244.578 81.6875V83.6875C249.206 83.6875 253.155 83.4202 256.414 82.877L256.086 80.9042ZM244.578 81.6875C239.926 81.6875 236.018 81.408 232.842 80.8584L232.501 82.8291C235.826 83.4045 239.855 83.6875 244.578 83.6875V81.6875ZM232.844 80.8587C229.675 80.3049 227.088 79.5734 225.06 78.6788L224.253 80.5087C226.475 81.4891 229.231 82.2576 232.5 82.8288L232.844 80.8587ZM225.06 78.6788C223.012 77.7754 221.476 76.7617 220.404 75.6615L218.971 77.0572C220.274 78.3945 222.05 79.5371 224.253 80.5087L225.06 78.6788ZM220.412 75.6706C219.294 74.4929 218.493 73.2958 217.985 72.0826L216.14 72.8549C216.757 74.3292 217.706 75.7259 218.963 77.0481L220.412 75.6706ZM217.988 72.0901C217.46 70.8001 217.142 69.522 217.027 68.2532L215.035 68.4343C215.17 69.9155 215.54 71.3874 216.137 72.8474L217.988 72.0901ZM217.029 68.2757C216.937 66.9211 216.891 65.6314 216.891 64.4062H214.891C214.891 65.6811 214.938 67.0164 215.034 68.4118L217.029 68.2757ZM216.891 64.4062V36.2812H214.891V64.4062H216.891ZM216.891 36.2812C216.891 35.0561 216.937 33.7664 217.029 32.4118L215.034 32.2757C214.938 33.6711 214.891 35.0064 214.891 36.2812H216.891ZM217.027 32.4343C217.142 31.1665 217.46 29.9065 217.985 28.6518L216.14 27.8795C215.54 29.3122 215.17 30.771 215.035 32.2532L217.027 32.4343ZM217.985 28.6518C218.491 27.4417 219.289 26.2634 220.404 25.1197L218.971 23.724C217.711 25.0179 216.759 26.402 216.14 27.8795L217.985 28.6518ZM220.412 25.1106C221.483 23.9836 223.016 22.9571 225.06 22.0555L224.253 20.2257C222.046 21.1991 220.267 22.3602 218.963 23.7331L220.412 25.1106ZM225.06 22.0555C227.088 21.1609 229.675 20.4294 232.844 19.8757L232.5 17.9056C229.231 18.4768 226.475 19.2453 224.253 20.2257L225.06 22.0555ZM232.842 19.876C236.018 19.3263 239.926 19.0469 244.578 19.0469V17.0469C239.855 17.0469 235.826 17.3299 232.501 17.9053L232.842 19.876ZM244.578 19.0469C249.104 19.0469 252.933 19.3262 256.078 19.8757L256.422 17.9056C253.129 17.3301 249.178 17.0469 244.578 17.0469V19.0469ZM256.078 19.8757C259.246 20.4294 261.834 21.1609 263.862 22.0555L264.669 20.2257C262.447 19.2453 259.691 18.4768 256.422 17.9056L256.078 19.8757ZM263.867 22.0577C265.943 22.9604 267.509 23.989 268.612 25.12L270.044 23.7238C268.709 22.3548 266.901 21.1959 264.664 20.2236L263.867 22.0577ZM268.63 25.1379C269.808 26.2868 270.668 27.4712 271.234 28.6874L273.047 27.8439C272.363 26.3726 271.348 24.9945 270.026 23.7059L268.63 25.1379ZM271.234 28.6874C271.815 29.9375 272.175 31.2076 272.319 32.5011L274.306 32.2802C274.138 30.7611 273.716 29.2813 273.047 27.8439L271.234 28.6874ZM272.319 32.5035C272.471 33.846 272.547 35.1049 272.547 36.2812H274.547C274.547 35.0201 274.466 33.6853 274.306 32.2777L272.319 32.5035ZM272.547 36.2812V53.8594H274.547V36.2812H272.547ZM273.547 52.8594H239.188V54.8594H273.547V52.8594ZM238.188 53.8594V69.8906H240.188V53.8594H238.188ZM239.188 70.8906H250.25V68.8906H239.188V70.8906ZM251.25 69.8906V59.9062H249.25V69.8906H251.25ZM250.252 60.9062L273.502 60.8594L273.498 58.8594L250.248 58.9063L250.252 60.9062ZM239.188 46.5156H250.25V44.5156H239.188V46.5156ZM251.25 45.5156V31.3125H249.25V45.5156H251.25ZM250.25 30.3125H239.188V32.3125H250.25V30.3125ZM238.188 31.3125V45.5156H240.188V31.3125H238.188ZM324.781 6.23438H325.781V5.23438H324.781V6.23438ZM324.781 17.3438V18.3438H325.781V17.3438H324.781ZM310.297 17.3438V16.3438H309.297V17.3438H310.297ZM310.297 35.9531H309.297V36.9531H310.297V35.9531ZM323.797 35.9531H324.797V34.9531H323.797V35.9531ZM323.797 47.6719V48.6719H324.797V47.6719H323.797ZM310.297 47.6719V46.6719H309.297V47.6719H310.297ZM310.297 69.8906H309.297V70.8906H310.297V69.8906ZM324.781 69.8906H325.781V68.8906H324.781V69.8906ZM324.781 81V82H325.781V81H324.781ZM287 81H286V82H287V81ZM287 6.23438V5.23438H286V6.23438H287ZM323.781 6.23438V17.3438H325.781V6.23438H323.781ZM324.781 16.3438H310.297V18.3438H324.781V16.3438ZM309.297 17.3438V35.9531H311.297V17.3438H309.297ZM310.297 36.9531H323.797V34.9531H310.297V36.9531ZM322.797 35.9531V47.6719H324.797V35.9531H322.797ZM323.797 46.6719H310.297V48.6719H323.797V46.6719ZM309.297 47.6719V69.8906H311.297V47.6719H309.297ZM310.297 70.8906H324.781V68.8906H310.297V70.8906ZM323.781 69.8906V81H325.781V69.8906H323.781ZM324.781 80H287V82H324.781V80ZM288 81V6.23438H286V81H288ZM287 7.23438H324.781V5.23438H287V7.23438ZM399.266 0.84375H400.266V-0.15625H399.266V0.84375ZM399.266 81V82H400.266V81H399.266ZM380 81L379.036 81.2656L379.238 82H380V81ZM377.844 73.1719L378.808 72.9063L378.188 70.655L376.986 72.6574L377.844 73.1719ZM374.422 77.3438L375.093 78.0853L375.094 78.0845L374.422 77.3438ZM370.062 80.3438L370.503 81.2417L370.51 81.2382L370.517 81.2347L370.062 80.3438ZM347.141 78L346.44 78.7138L346.447 78.7205L346.454 78.727L347.141 78ZM343.109 71.9062L342.184 72.2858L342.188 72.2959L343.109 71.9062ZM343.109 28.125L344.025 28.5265L344.027 28.5219L343.109 28.125ZM347.047 22.4062L346.376 21.665L346.369 21.6714L347.047 22.4062ZM352.672 19.0781L352.351 18.1308L352.347 18.1323L352.672 19.0781ZM368.562 19.7344L368.193 20.6635L368.196 20.6649L368.562 19.7344ZM375.969 24.7969L375.226 25.4664L376.969 27.3998V24.7969H375.969ZM375.969 0.84375V-0.15625H374.969V0.84375H375.969ZM375.969 31.3125H376.969V30.3125H375.969V31.3125ZM364.906 31.3125V30.3125H363.906V31.3125H364.906ZM364.906 69.8906H363.906V70.8906H364.906V69.8906ZM375.969 69.8906V70.8906H376.969V69.8906H375.969ZM398.266 0.84375V81H400.266V0.84375H398.266ZM399.266 80H380V82H399.266V80ZM380.964 80.7344L378.808 72.9063L376.88 73.4374L379.036 81.2656L380.964 80.7344ZM376.986 72.6574C376.099 74.1362 375.021 75.4505 373.75 76.603L375.094 78.0845C376.51 76.7995 377.714 75.3326 378.701 73.6864L376.986 72.6574ZM373.751 76.6022C372.505 77.73 371.124 78.6799 369.608 79.4528L370.517 81.2347C372.188 80.3826 373.714 79.3325 375.093 78.0853L373.751 76.6022ZM369.622 79.4458C368.1 80.1921 366.486 80.7605 364.778 81.15L365.222 83.1C367.077 82.677 368.838 82.0579 370.503 81.2417L369.622 79.4458ZM364.778 81.15C363.071 81.5392 361.318 81.7344 359.516 81.7344V83.7344C361.463 83.7344 363.366 83.5233 365.222 83.1L364.778 81.15ZM359.516 81.7344C357.384 81.7344 355.296 81.3648 353.247 80.6223L352.566 82.5027C354.829 83.3227 357.147 83.7344 359.516 83.7344V81.7344ZM353.247 80.6223C351.221 79.8883 349.416 78.7739 347.827 77.273L346.454 78.727C348.24 80.4136 350.279 81.6742 352.566 82.5027L353.247 80.6223ZM347.841 77.2862C346.291 75.7657 345.017 73.8495 344.03 71.5166L342.188 72.2959C343.264 74.838 344.677 76.9843 346.44 78.7138L347.841 77.2862ZM344.035 71.5267C343.094 69.2352 342.609 66.5101 342.609 63.3281H340.609C340.609 66.7087 341.124 69.7023 342.184 72.2858L344.035 71.5267ZM342.609 63.3281V36.2344H340.609V63.3281H342.609ZM342.609 36.2344C342.609 33.2135 343.093 30.6533 344.025 28.5265L342.194 27.7235C341.126 30.1592 340.609 33.0052 340.609 36.2344H342.609ZM344.027 28.5219C344.98 26.3197 346.216 24.5341 347.725 23.1411L346.369 21.6714C344.628 23.2784 343.239 25.3053 342.192 27.7281L344.027 28.5219ZM347.718 23.1475C349.275 21.7376 351.032 20.6983 352.997 20.0239L352.347 18.1323C350.124 18.8955 348.131 20.0749 346.376 21.665L347.718 23.1475ZM352.992 20.0254C355.015 19.3412 357.079 19 359.188 19V17C356.859 17 354.579 17.3776 352.351 18.1308L352.992 20.0254ZM359.188 19C362.413 19 365.412 19.5572 368.193 20.6635L368.932 18.8052C365.9 17.599 362.649 17 359.188 17V19ZM368.196 20.6649C370.998 21.7678 373.335 23.3691 375.226 25.4664L376.712 24.1273C374.602 21.7871 372.002 20.0135 368.929 18.8039L368.196 20.6649ZM376.969 24.7969V0.84375H374.969V24.7969H376.969ZM375.969 1.84375H399.266V-0.15625H375.969V1.84375ZM375.969 30.3125H364.906V32.3125H375.969V30.3125ZM363.906 31.3125V69.8906H365.906V31.3125H363.906ZM364.906 70.8906H375.969V68.8906H364.906V70.8906ZM376.969 69.8906V31.3125H374.969V69.8906H376.969ZM470.562 20.0625H471.562V19.0625H470.562V20.0625ZM470.562 81V82H471.562V81H470.562ZM451.297 81L450.333 81.2656L450.535 82H451.297V81ZM449.141 73.1719L450.105 72.9063L449.412 70.3925L448.246 72.7247L449.141 73.1719ZM445.953 77.4844L446.634 78.2172L446.643 78.2085L445.953 77.4844ZM441.547 80.5781L441.994 81.4726L442.001 81.4691L442.008 81.4656L441.547 80.5781ZM436.344 82.4062L436.129 81.4297L436.121 81.4314L436.113 81.4333L436.344 82.4062ZM424.156 81.9844L423.836 82.9317L423.84 82.9331L424.156 81.9844ZM418.438 78.75L417.774 79.4982L417.781 79.5048L417.789 79.5112L418.438 78.75ZM414.406 73.2188L413.495 73.6297L413.499 73.6402L414.406 73.2188ZM412.906 20.0625V19.0625H411.906V20.0625H412.906ZM436.203 20.0625H437.203V19.0625H436.203V20.0625ZM436.203 69.8906H435.203V70.8906H436.203V69.8906ZM447.266 69.8906V70.8906H448.266V69.8906H447.266ZM447.266 20.0625V19.0625H446.266V20.0625H447.266ZM469.562 20.0625V81H471.562V20.0625H469.562ZM470.562 80H451.297V82H470.562V80ZM452.261 80.7344L450.105 72.9063L448.177 73.4374L450.333 81.2656L452.261 80.7344ZM448.246 72.7247C447.485 74.2465 446.492 75.5902 445.263 76.7602L446.643 78.2085C448.039 76.8785 449.171 75.3473 450.035 73.6191L448.246 72.7247ZM445.273 76.7516C444.028 77.9078 442.633 78.8874 441.086 79.6906L442.008 81.4656C443.711 80.5813 445.254 79.4985 446.634 78.2172L445.273 76.7516ZM441.1 79.6837C439.551 80.4579 437.895 81.0405 436.129 81.4297L436.559 83.3828C438.48 82.9595 440.293 82.3233 441.994 81.4726L441.1 79.6837ZM436.113 81.4333C434.345 81.8527 432.548 82.0625 430.719 82.0625V84.0625C432.702 84.0625 434.655 83.8348 436.575 83.3792L436.113 81.4333ZM430.719 82.0625C428.61 82.0625 426.529 81.7213 424.472 81.0357L423.84 82.9331C426.096 83.685 428.39 84.0625 430.719 84.0625V82.0625ZM424.477 81.0371C422.47 80.3585 420.676 79.343 419.086 77.9888L417.789 79.5112C419.574 81.032 421.592 82.1728 423.836 82.9317L424.477 81.0371ZM419.101 78.0018C417.558 76.6333 416.293 74.9047 415.313 72.7973L413.499 73.6402C414.582 75.9703 416.005 77.9292 417.774 79.4982L419.101 78.0018ZM415.318 72.8079C414.387 70.7434 413.906 68.295 413.906 65.4375H411.906C411.906 68.5175 412.425 71.2566 413.495 73.6296L415.318 72.8079ZM413.906 65.4375V20.0625H411.906V65.4375H413.906ZM412.906 21.0625H436.203V19.0625H412.906V21.0625ZM435.203 20.0625V69.8906H437.203V20.0625H435.203ZM436.203 70.8906H447.266V68.8906H436.203V70.8906ZM448.266 69.8906V20.0625H446.266V69.8906H448.266ZM447.266 21.0625H470.562V19.0625H447.266V21.0625ZM541.016 59.8594H542.016V58.8594H541.016V59.8594ZM540.875 68.3438L541.873 68.4118L541.873 68.4103L540.875 68.3438ZM539.938 72.4688L540.867 72.8364L540.87 72.8291L539.938 72.4688ZM537.359 76.3594L536.634 75.6706L536.634 75.6711L537.359 76.3594ZM532.391 79.6406L532.794 80.5556L532.8 80.5528L532.391 79.6406ZM500.141 81.8906L499.968 82.8757L499.97 82.876L500.141 81.8906ZM483.5 68.3906L482.502 68.4571L482.503 68.4692L482.504 68.4812L483.5 68.3906ZM483.5 32.3438L482.504 32.2532L482.503 32.2645L482.502 32.2757L483.5 32.3438ZM487.156 24.4219L487.873 25.1198L487.881 25.1106L487.156 24.4219ZM500.141 18.8906L499.97 17.9053L499.968 17.9056L500.141 18.8906ZM523.672 18.7969L523.517 19.7848L523.518 19.785L523.672 18.7969ZM531.688 20.8594L531.307 21.7841L531.311 21.786L531.688 20.8594ZM541.016 40.9219V41.9219H542.016V40.9219H541.016ZM517.719 40.9219H516.719V41.9219H517.719V40.9219ZM517.719 31.3125H518.719V30.3125H517.719V31.3125ZM506.656 31.3125V30.3125H505.656V31.3125H506.656ZM506.656 69.8906H505.656V70.8906H506.656V69.8906ZM517.719 69.8906V70.8906H518.719V69.8906H517.719ZM517.719 59.8594V58.8594H516.719V59.8594H517.719ZM540.016 59.8594V64.4062H542.016V59.8594H540.016ZM540.016 64.4062C540.016 65.5997 539.97 66.8898 539.877 68.2772L541.873 68.4103C541.968 66.9852 542.016 65.6503 542.016 64.4062H540.016ZM539.877 68.2757C539.791 69.5438 539.502 70.8205 539.005 72.1084L540.87 72.8291C541.435 71.367 541.772 69.8937 541.873 68.4118L539.877 68.2757ZM539.008 72.1011C538.532 73.305 537.75 74.496 536.634 75.6706L538.084 77.0481C539.343 75.7228 540.281 74.32 540.867 72.8364L539.008 72.1011ZM536.634 75.6711C535.596 76.7653 534.063 77.7929 531.981 78.7285L532.8 80.5528C535.031 79.5508 536.81 78.391 538.085 77.0476L536.634 75.6711ZM531.987 78.7257C529.963 79.6187 527.331 80.3505 524.067 80.9047L524.402 82.8765C527.763 82.3058 530.568 81.5375 532.794 80.5555L531.987 78.7257ZM524.067 80.9047C520.828 81.4548 516.825 81.7344 512.047 81.7344V83.7344C516.894 83.7344 521.016 83.4515 524.402 82.8765L524.067 80.9047ZM512.047 81.7344C507.395 81.7344 503.487 81.4549 500.311 80.9053L499.97 82.876C503.294 83.4513 507.324 83.7344 512.047 83.7344V81.7344ZM500.313 80.9056C497.144 80.3518 494.556 79.6203 492.529 78.7257L491.721 80.5555C493.944 81.5359 496.7 82.3044 499.968 82.8757L500.313 80.9056ZM492.529 78.7257C490.485 77.8241 488.952 76.7977 487.881 75.6706L486.431 77.0481C487.736 78.4211 489.515 79.5821 491.721 80.5555L492.529 78.7257ZM487.881 75.6706C486.762 74.4929 485.962 73.2958 485.454 72.0826L483.609 72.8549C484.226 74.3292 485.175 75.7259 486.431 77.0481L487.881 75.6706ZM485.454 72.0826C484.928 70.8279 484.611 69.5679 484.496 68.3001L482.504 68.4812C482.639 69.9633 483.009 71.4221 483.609 72.8549L485.454 72.0826ZM484.498 68.3241C484.405 66.9373 484.359 65.6315 484.359 64.4062H482.359C482.359 65.681 482.407 67.0315 482.502 68.4571L484.498 68.3241ZM484.359 64.4062V36.2812H482.359V64.4062H484.359ZM484.359 36.2812C484.359 35.0561 484.405 33.7664 484.498 32.4118L482.502 32.2757C482.407 33.6711 482.359 35.0064 482.359 36.2812H484.359ZM484.496 32.4343C484.611 31.1665 484.928 29.9065 485.454 28.6518L483.609 27.8795C483.009 29.3122 482.639 30.771 482.504 32.2532L484.496 32.4343ZM485.454 28.6518C485.96 27.4417 486.758 26.2634 487.872 25.1197L486.44 23.724C485.179 25.0179 484.227 26.402 483.609 27.8795L485.454 28.6518ZM487.881 25.1106C488.952 23.9836 490.485 22.9571 492.529 22.0555L491.721 20.2257C489.515 21.1991 487.736 22.3602 486.431 23.7331L487.881 25.1106ZM492.529 22.0555C494.556 21.1609 497.144 20.4294 500.313 19.8757L499.968 17.9056C496.7 18.4768 493.944 19.2453 491.721 20.2257L492.529 22.0555ZM500.311 19.876C503.487 19.3263 507.395 19.0469 512.047 19.0469V17.0469C507.324 17.0469 503.294 17.3299 499.97 17.9053L500.311 19.876ZM512.047 19.0469C516.577 19.0469 520.397 19.2954 523.517 19.7848L523.827 17.809C520.572 17.2984 516.642 17.0469 512.047 17.0469V19.0469ZM523.518 19.785C526.689 20.2775 529.278 20.9487 531.307 21.7841L532.068 19.9347C529.847 19.0201 527.093 18.3162 523.825 17.8087L523.518 19.785ZM531.311 21.786C533.398 22.6329 534.99 23.5788 536.128 24.6027L537.466 23.1161C536.103 21.8899 534.289 20.8359 532.064 19.9328L531.311 21.786ZM536.128 24.6027C537.299 25.6569 538.151 26.7601 538.711 27.9072L540.508 27.0303C539.818 25.6149 538.794 24.3118 537.466 23.1161L536.128 24.6027ZM538.711 27.9072C539.29 29.0956 539.646 30.2848 539.788 31.4776L541.774 31.2412C541.604 29.809 541.178 28.4044 540.508 27.0303L538.711 27.9072ZM539.788 31.4776C539.94 32.7541 540.016 33.9802 540.016 35.1562H542.016C542.016 33.8948 541.935 32.5896 541.774 31.2412L539.788 31.4776ZM540.016 35.1562V40.9219H542.016V35.1562H540.016ZM541.016 39.9219H517.719V41.9219H541.016V39.9219ZM518.719 40.9219V31.3125H516.719V40.9219H518.719ZM517.719 30.3125H506.656V32.3125H517.719V30.3125ZM505.656 31.3125V69.8906H507.656V31.3125H505.656ZM506.656 70.8906H517.719V68.8906H506.656V70.8906ZM518.719 69.8906V59.8594H516.719V69.8906H518.719ZM517.719 60.8594H541.016V58.8594H517.719V60.8594ZM589.812 81L588.847 81.2602L589.046 82H589.812V81ZM587.703 73.1719L588.669 72.9117L587.993 70.4024L586.812 72.7177L587.703 73.1719ZM580.438 80.3438L580.892 81.2345L580.899 81.2309L580.906 81.2271L580.438 80.3438ZM575.516 82.0781L575.306 81.1003L575.296 81.1025L575.286 81.1049L575.516 82.0781ZM561.312 81.0469L561.722 80.1345L561.716 80.1321L561.312 81.0469ZM555.5 76.8281L554.722 77.4561L554.728 77.4636L554.734 77.471L555.5 76.8281ZM552.406 70.7812L551.438 71.0331L551.441 71.041L551.443 71.0489L552.406 70.7812ZM552.594 56.4844L551.639 56.1868L551.637 56.1947L552.594 56.4844ZM556.391 50.0625L555.666 49.3734L555.666 49.3738L556.391 50.0625ZM563.656 45.4688L563.303 44.5332L563.3 44.5344L563.656 45.4688ZM585.875 44.3438L585.757 45.3368L586.875 45.4694V44.3438H585.875ZM585.875 31.3125H586.875V30.3125H585.875V31.3125ZM574.812 31.3125V30.3125H573.812V31.3125H574.812ZM574.812 39.1406L574.81 40.1406L575.812 40.1432V39.1406H574.812ZM556.344 39.0938L555.381 39.3652L555.586 40.0918L556.341 40.0937L556.344 39.0938ZM556.344 26.7188L555.44 26.2914L555.436 26.2986L556.344 26.7188ZM560.469 22.2188L559.923 21.3806L559.917 21.3846L560.469 22.2188ZM568.344 19.1719L568.123 18.1966L568.121 18.197L568.344 19.1719ZM605.188 24.4219L604.462 25.1107L604.471 25.1197L605.188 24.4219ZM607.859 28.3125L606.941 28.709L606.945 28.7167L607.859 28.3125ZM608.938 32.4375L607.941 32.526L607.943 32.5382L607.944 32.5504L608.938 32.4375ZM609.453 73.3125L608.462 73.4447L608.463 73.4555L608.465 73.4662L609.453 73.3125ZM610.156 77.1562L609.179 77.3676L609.18 77.3752L609.182 77.3828L610.156 77.1562ZM611.188 81V82H612.541L612.143 80.7059L611.188 81ZM574.812 52.7812V51.7812H573.812V52.7812H574.812ZM574.812 69.8906H573.812V70.8906H574.812V69.8906ZM585.875 69.8906V70.8906H586.875V69.8906H585.875ZM585.875 52.7812H586.875V51.7812H585.875V52.7812ZM590.778 80.7398L588.669 72.9117L586.738 73.4321L588.847 81.2602L590.778 80.7398ZM586.812 72.7177C586.049 74.2142 585.085 75.5123 583.921 76.6188L585.298 78.0687C586.633 76.8002 587.732 75.3171 588.594 73.6261L586.812 72.7177ZM583.921 76.6188C582.737 77.7434 581.42 78.6902 579.969 79.4604L580.906 81.2271C582.517 80.3723 583.982 79.3191 585.298 78.0687L583.921 76.6188ZM579.983 79.453C578.532 80.1931 576.975 80.7428 575.306 81.1003L575.725 83.0559C577.557 82.6634 579.28 82.0569 580.892 81.2345L579.983 79.453ZM575.286 81.1049C573.64 81.4939 571.999 81.6875 570.359 81.6875V83.6875C572.158 83.6875 573.954 83.4749 575.746 83.0513L575.286 81.1049ZM570.359 81.6875C566.861 81.6875 563.994 81.1542 561.722 80.1345L560.903 81.9592C563.506 83.127 566.671 83.6875 570.359 83.6875V81.6875ZM561.716 80.1321C559.429 79.122 557.623 77.8016 556.266 76.1853L554.734 77.471C556.315 79.3547 558.384 80.8468 560.909 81.9617L561.716 80.1321ZM556.278 76.2001C554.928 74.5273 553.959 72.6348 553.37 70.5136L551.443 71.0489C552.104 73.4277 553.197 75.5665 554.722 77.4561L556.278 76.2001ZM553.374 70.5294C552.802 68.3321 552.516 66.073 552.516 63.75H550.516C550.516 66.2395 550.823 68.6679 551.438 71.0331L553.374 70.5294ZM552.516 63.75C552.516 61.3799 552.86 59.0556 553.551 56.774L551.637 56.1947C550.89 58.6632 550.516 61.1826 550.516 63.75H552.516ZM553.548 56.7819C554.252 54.5259 555.437 52.5182 557.116 50.7512L555.666 49.3738C553.782 51.3568 552.436 53.6304 551.639 56.1868L553.548 56.7819ZM557.115 50.7516C558.804 48.9758 561.089 47.5183 564.013 46.4031L563.3 44.5344C560.161 45.7317 557.602 47.3367 555.666 49.3734L557.115 50.7516ZM564.009 46.4043C566.923 45.3043 570.637 44.7344 575.188 44.7344V42.7344C570.488 42.7344 566.515 43.3207 563.303 44.5332L564.009 46.4043ZM575.188 44.7344C576.762 44.7344 578.464 44.7807 580.293 44.8737L580.395 42.8763C578.536 42.7818 576.801 42.7344 575.188 42.7344V44.7344ZM580.293 44.8737C582.114 44.9663 583.936 45.1207 585.757 45.3368L585.993 43.3507C584.127 43.1293 582.261 42.9712 580.395 42.8763L580.293 44.8737ZM586.875 44.3438V31.3125H584.875V44.3438H586.875ZM585.875 30.3125H574.812V32.3125H585.875V30.3125ZM573.812 31.3125V39.1406H575.812V31.3125H573.812ZM574.815 38.1406L556.346 38.0938L556.341 40.0937L574.81 40.1406L574.815 38.1406ZM557.306 38.8223C556.97 37.6319 556.696 36.4589 556.483 35.3032L554.517 35.6655C554.741 36.8849 555.03 38.1181 555.381 39.3652L557.306 38.8223ZM556.483 35.3032C556.275 34.1694 556.172 33.0896 556.172 32.0625H554.172C554.172 33.2229 554.288 34.4244 554.517 35.6655L556.483 35.3032ZM556.172 32.0625C556.172 30.3314 556.531 28.6936 557.251 27.1389L555.436 26.2986C554.594 28.1189 554.172 30.0436 554.172 32.0625H556.172ZM557.248 27.1461C557.967 25.6258 559.201 24.2557 561.02 23.0529L559.917 21.3846C557.861 22.7443 556.346 24.3742 555.44 26.2914L557.248 27.1461ZM561.014 23.0569C562.852 21.8611 565.355 20.8809 568.567 20.1467L568.121 18.197C564.77 18.9628 562.023 20.0139 559.923 21.3806L561.014 23.0569ZM568.565 20.1472C571.779 19.4194 575.871 19.0469 580.859 19.0469V17.0469C575.786 17.0469 571.534 17.4244 568.123 18.1966L568.565 20.1472ZM580.859 19.0469C585.354 19.0469 589.135 19.3262 592.215 19.8751L592.566 17.9061C589.334 17.3301 585.427 17.0469 580.859 17.0469V19.0469ZM592.215 19.8751C595.32 20.4285 597.861 21.1594 599.857 22.0533L600.674 20.2279C598.483 19.2468 595.774 18.4778 592.566 17.9061L592.215 19.8751ZM599.857 22.0533C601.869 22.9542 603.389 23.9808 604.463 25.1106L605.912 23.7331C604.611 22.3629 602.85 21.2021 600.674 20.2279L599.857 22.0533ZM604.471 25.1197C605.585 26.2629 606.402 27.46 606.941 28.7089L608.777 27.9161C608.129 26.415 607.165 25.0183 605.904 23.724L604.471 25.1197ZM606.945 28.7167C607.496 29.9645 607.827 31.2331 607.941 32.526L609.934 32.349C609.798 30.8294 609.41 29.348 608.774 27.9083L606.945 28.7167ZM607.944 32.5504C608.096 33.8918 608.172 35.1665 608.172 36.375H610.172C610.172 35.0835 610.091 33.7332 609.931 32.3246L607.944 32.5504ZM608.172 36.375V68.9531H610.172V36.375H608.172ZM608.172 68.9531C608.172 70.4948 608.268 71.9922 608.462 73.4447L610.444 73.1803C610.263 71.8203 610.172 70.4114 610.172 68.9531H608.172ZM608.465 73.4662C608.686 74.888 608.924 76.1889 609.179 77.3676L611.134 76.9449C610.889 75.8111 610.658 74.5495 610.441 73.1588L608.465 73.4662ZM609.182 77.3828C609.5 78.7474 609.849 80.0513 610.232 81.2941L612.143 80.7059C611.776 79.5112 611.438 78.2526 611.13 76.9297L609.182 77.3828ZM611.188 80H589.812V82H611.188V80ZM573.812 52.7812V69.8906H575.812V52.7812H573.812ZM574.812 70.8906H585.875V68.8906H574.812V70.8906ZM586.875 69.8906V52.7812H584.875V69.8906H586.875ZM585.875 51.7812H574.812V53.7812H585.875V51.7812Z" fill="black"/>
</svg>
